<?xml version="1.0" encoding="UTF-8" standalone="no"?>
<!-- Created with Inkscape (http://www.inkscape.org/) -->

<svg
   width="256"
   height="256"
   viewBox="0 0 67.733332 67.733335"
   version="1.1"
   id="svg5"
   inkscape:version="1.3 (0e150ed6c4, 2023-07-21)"
   sodipodi:docname="logo-dark.svg"
   xmlns:inkscape="http://www.inkscape.org/namespaces/inkscape"
   xmlns:sodipodi="http://sodipodi.sourceforge.net/DTD/sodipodi-0.dtd"
   xmlns="http://www.w3.org/2000/svg"
   xmlns:svg="http://www.w3.org/2000/svg">
  <sodipodi:namedview
     id="namedview7"
     pagecolor="#505050"
     bordercolor="#ffffff"
     borderopacity="1"
     inkscape:pageshadow="0"
     inkscape:pageopacity="0"
     inkscape:pagecheckerboard="1"
     inkscape:document-units="px"
     showgrid="false"
     units="px"
     inkscape:zoom="1.5411756"
     inkscape:cx="66.183243"
     inkscape:cy="119.38938"
     inkscape:window-width="1898"
     inkscape:window-height="1010"
     inkscape:window-x="1930"
     inkscape:window-y="58"
     inkscape:window-maximized="0"
     inkscape:current-layer="layer1"
     inkscape:showpageshadow="0"
     inkscape:deskcolor="#d1d1d1" />
  <defs
     id="defs2" />
  <g
     inkscape:label="Layer 1"
     inkscape:groupmode="layer"
     id="layer1"
     style="stroke:#ffffff;stroke-opacity:1">
    <g
       id="g8"
       inkscape:label="fingers"
       transform="matrix(0,2.2605875,-2.2605875,0,65.578558,-26.329414)"
       style="stroke:#ffffff;stroke-width:1.4045;stroke-dasharray:none;stroke-opacity:1">
      <rect
         style="fill:none;fill-opacity:0.760784;stroke:#ffffff;stroke-width:1.4045;stroke-linecap:round;stroke-dasharray:none;stroke-opacity:1"
         id="rect5"
         width="4.4118838"
         height="7.8875527"
         x="31.93648"
         y="3.5109079"
         ry="2.2059419"
         inkscape:label="pinky" />
      <rect
         style="fill:none;fill-opacity:0.760784;stroke:#ffffff;stroke-width:1.4045;stroke-linecap:round;stroke-dasharray:none;stroke-opacity:1"
         id="rect8"
         width="4.3525653"
         height="8.449439"
         x="27.525822"
         y="2.1165426"
         ry="2.1762826"
         inkscape:label="ring" />
      <path
         id="rect7"
         style="fill:none;fill-opacity:0.760784;stroke:#ffffff;stroke-width:1.4045;stroke-linecap:round;stroke-dasharray:none;stroke-opacity:1"
         inkscape:label="middle"
         d="M 23.200016,6.6953754 V 3.2334828 c 0,-1.1839099 0.953112,-2.1370215 2.137022,-2.1370215 1.183909,0 2.137021,0.9531116 2.137021,2.1370215 v 4.9628468"
         sodipodi:nodetypes="csssc" />
      <path
         id="rect6"
         style="fill:none;fill-opacity:0.760784;stroke:#ffffff;stroke-width:1.4045;stroke-linecap:round;stroke-dasharray:none;stroke-opacity:1"
         inkscape:label="pointer"
         d="M 18.904711,6.0080299 V 4.2547614 c 0,-1.2129353 0.976478,-2.1894138 2.189414,-2.1894138 1.212935,0 2.189413,0.9764785 2.189413,2.1894138 v 2.4899685"
         sodipodi:nodetypes="csssc" />
    </g>
    <path
       style="fill:none;stroke:#ffffff;stroke-width:3.175;stroke-linecap:butt;stroke-linejoin:miter;stroke-dasharray:none;stroke-opacity:1"
       d="M 49.588491,56.729905 C 45.333892,61.712498 35.296605,60.520863 30.44707,60.566107 23.150715,60.531113 19.052263,55.724168 17.751462,53.973519 15.726281,51.247976 14.283913,44.395132 14.283913,44.395132"
       id="path8"
       sodipodi:nodetypes="cssc" />
    <path
       style="fill:none;stroke:#ffffff;stroke-width:3.175;stroke-linecap:butt;stroke-linejoin:miter;stroke-dasharray:none;stroke-opacity:1"
       d="M 17.492478,53.758892 H 4.2996608"
       id="path3" />
    <path
       style="fill:none;stroke:#ffffff;stroke-width:3.175;stroke-linecap:butt;stroke-linejoin:miter;stroke-dasharray:none;stroke-opacity:1"
       d="m 38.531903,18.314524 c 0,0 -8.334681,16.540476 9.328766,18.19531 L 51.722246,19.6728 c 0,0 0.05307,-4.74628 -3.155058,-6.414275 -2.79653,-1.453992 -2.39595,-1.643388 -12.326478,-5.797889 0,0 -3.851788,-1.9288983 -8.051574,2.772256 L 14.459581,22.623988 H 3.0459223"
       id="path1"
       sodipodi:nodetypes="cccsc" />
    <path
       style="fill:none;stroke:#ffffff;stroke-width:3.175;stroke-linecap:butt;stroke-linejoin:miter;stroke-dasharray:none;stroke-opacity:1"
       d="m 36.91416,30.515027 c 0,0 -5.522753,2.723097 -12.028559,-1.382733"
       id="path2" />
  </g>
</svg>
