<?xml version="1.0" encoding="UTF-8" standalone="no"?>
<!-- Created with Inkscape (http://www.inkscape.org/) -->

<svg
   width="256"
   height="256"
   viewBox="0 0 67.733332 67.733335"
   version="1.1"
   id="svg5"
   inkscape:version="1.3 (0e150ed6c4, 2023-07-21)"
   sodipodi:docname="logo-dark.svg"
   xml:space="preserve"
   xmlns:inkscape="http://www.inkscape.org/namespaces/inkscape"
   xmlns:sodipodi="http://sodipodi.sourceforge.net/DTD/sodipodi-0.dtd"
   xmlns="http://www.w3.org/2000/svg"
   xmlns:svg="http://www.w3.org/2000/svg"><sodipodi:namedview
     id="namedview7"
     pagecolor="#505050"
     bordercolor="#ffffff"
     borderopacity="1"
     inkscape:pageshadow="0"
     inkscape:pageopacity="0"
     inkscape:pagecheckerboard="1"
     inkscape:document-units="px"
     showgrid="false"
     units="px"
     inkscape:zoom="2.1795514"
     inkscape:cx="108.73797"
     inkscape:cy="126.17275"
     inkscape:window-width="1898"
     inkscape:window-height="1010"
     inkscape:window-x="1930"
     inkscape:window-y="58"
     inkscape:window-maximized="0"
     inkscape:current-layer="layer1"
     inkscape:showpageshadow="0"
     inkscape:deskcolor="#d1d1d1" /><defs
     id="defs2"><inkscape:perspective
       sodipodi:type="inkscape:persp3d"
       inkscape:vp_x="0 : 33.866667 : 1"
       inkscape:vp_y="0 : 1000 : 0"
       inkscape:vp_z="67.733332 : 33.866667 : 1"
       inkscape:persp3d-origin="33.866666 : 22.577778 : 1"
       id="perspective2" /></defs><g
     inkscape:label="Layer 1"
     inkscape:groupmode="layer"
     id="layer1"
     transform="translate(2.2635785,-3.6710197)"><g
       id="g4"
       inkscape:label="fg"
       transform="matrix(1.122886,0,0,1.122886,-1.9039821,-4.0162035)"
       style="stroke:#ffffff;stroke-opacity:1"><g
         id="g2"
         inkscape:label="portfolio"
         transform="translate(-5.0251152,11.842607)"
         style="stroke:#ffffff;stroke-opacity:1"><g
           id="g16"
           inkscape:label="folder"
           style="stroke:#ffffff;stroke-opacity:1"><path
             id="rect1"
             style="fill:none;stroke:#ffffff;stroke-width:2.11667;stroke-linecap:round;stroke-opacity:1"
             d="m 51.627691,50.087502 h -9.425397 -9.425396 -9.425396 -9.425397 c -0.146579,0 -0.286014,-0.0295 -0.412717,-0.08291 -0.126702,-0.05341 -0.240671,-0.130737 -0.336318,-0.226384 -0.09565,-0.09565 -0.172971,-0.209616 -0.226384,-0.336319 -0.05341,-0.126702 -0.08291,-0.266138 -0.08291,-0.412717 v -7.031239 -7.03124 -7.031239 -7.03124 c 0,-0.146579 0.0295,-0.286015 0.08291,-0.412717 0.05341,-0.126702 0.130737,-0.240672 0.226384,-0.336318 0.09565,-0.09565 0.209616,-0.172972 0.336318,-0.226384 0.126703,-0.05341 0.266138,-0.08291 0.412717,-0.08291 h 10.143642 m 18.428643,0 h 9.129301 c 0.146579,0 0.286015,0.0295 0.412717,0.08291 0.126703,0.05341 0.240672,0.130737 0.336319,0.226384 0.09565,0.09565 0.172971,0.209616 0.226384,0.336318 0.05341,0.126702 0.08291,0.266138 0.08291,0.412717 v 1.75781 1.757809 1.75781 1.75781"
             sodipodi:nodetypes="ccccssssscccsssssccssssscccc"
             inkscape:label="back" /><rect
             style="fill:none;stroke:#ffffff;stroke-width:2.18353;stroke-linecap:round;stroke-dasharray:none;stroke-opacity:1"
             id="rect13"
             width="39.924053"
             height="23.434669"
             x="30.908226"
             y="29.923632"
             transform="matrix(1,0,-0.34202014,0.93969262,0,0)"
             ry="1.0583333"
             inkscape:label="front" /><path
             style="fill:none;stroke:#ffffff;stroke-width:2.11667;stroke-linecap:round;stroke-linejoin:miter;stroke-dasharray:none;stroke-opacity:1"
             d="m 13.2898,20.096918 c 0,0 -0.163357,8.367465 2.907486,9.955274 1.500565,0.775881 4.790716,-1.652942 4.790716,-1.652942"
             id="path13"
             sodipodi:nodetypes="csc"
             inkscape:label="crease" /></g><g
           id="g15"
           inkscape:label="handle"
           style="stroke:#ffffff;stroke-opacity:1"><ellipse
             style="fill:none;stroke:#ffffff;stroke-width:1.5875;stroke-linecap:round;stroke-dasharray:none;stroke-opacity:1"
             id="path14"
             cx="29.786528"
             cy="34.522419"
             rx="2.6876235"
             ry="2.7741549"
             inkscape:label="left" /><ellipse
             style="fill:none;stroke:#ffffff;stroke-width:1.5875;stroke-linecap:round;stroke-dasharray:none;stroke-opacity:1"
             id="ellipse14"
             cx="43.021996"
             cy="34.522419"
             rx="2.6876235"
             ry="2.7741549"
             inkscape:label="right" /><path
             id="rect15"
             style="fill:none;stroke:#ffffff;stroke-width:1.5875;stroke-linecap:round;stroke-opacity:1"
             d="m 43.022894,34.693817 v 5.505967 c 0,0.586317 -0.472017,1.058334 -1.058334,1.058334 H 30.876423 c -0.586316,0 -1.058333,-0.472017 -1.058333,-1.058334 v -5.505967"
             sodipodi:nodetypes="cssssc"
             inkscape:label="connector" /></g></g><g
         id="g3"
         transform="translate(-14.661676,19.620466)"
         style="stroke:#ffffff;stroke-opacity:1"
         inkscape:label="punch"><g
           id="g8"
           inkscape:label="fingers"
           transform="translate(14.93334,-7.5232318)"
           style="stroke:#ffffff;stroke-opacity:1"><rect
             style="fill:none;fill-opacity:0.760784;stroke:#ffffff;stroke-width:2.11667;stroke-linecap:round;stroke-dasharray:none;stroke-opacity:1"
             id="rect5"
             width="4.4118838"
             height="7.8875527"
             x="31.93648"
             y="3.5109079"
             ry="2.2059419"
             inkscape:label="pinky" /><rect
             style="fill:none;fill-opacity:0.760784;stroke:#ffffff;stroke-width:2.17599;stroke-linecap:round;stroke-dasharray:none;stroke-opacity:1"
             id="rect8"
             width="4.3525653"
             height="8.449439"
             x="27.525822"
             y="2.1165426"
             ry="2.1762826"
             inkscape:label="ring" /><path
             id="rect7"
             style="fill:none;fill-opacity:0.760784;stroke:#ffffff;stroke-width:2.25451;stroke-linecap:round;stroke-opacity:1"
             inkscape:label="middle"
             d="M 23.200016,6.6953754 V 3.2334828 c 0,-1.1839099 0.953112,-2.1370215 2.137022,-2.1370215 1.183909,0 2.137021,0.9531116 2.137021,2.1370215 v 4.9628468"
             sodipodi:nodetypes="csssc" /><path
             id="rect6"
             style="fill:none;fill-opacity:0.760784;stroke:#ffffff;stroke-width:2.14973;stroke-linecap:round;stroke-opacity:1"
             inkscape:label="pointer"
             d="M 18.904711,6.0080299 V 4.2547614 c 0,-1.2129353 0.976478,-2.1894138 2.189414,-2.1894138 1.212935,0 2.189413,0.9764785 2.189413,2.1894138 v 2.4899685"
             sodipodi:nodetypes="csssc" /></g><path
           style="fill:none;stroke:#ffffff;stroke-width:2.11667;stroke-linecap:butt;stroke-linejoin:miter;stroke-dasharray:none;stroke-opacity:1"
           d="m 51.6757,-0.44981987 c 2.204114,1.88207667 1.676979,6.32219997 1.696993,8.46745407 -0.01548,3.2276368 -2.141894,5.0406398 -2.916316,5.6160658 -1.205679,0.895865 -4.237123,1.533915 -4.237123,1.533915"
           id="path8"
           sodipodi:nodetypes="cssc" /><path
           style="fill:none;stroke:#ffffff;stroke-width:2.11667;stroke-linecap:butt;stroke-linejoin:miter;stroke-dasharray:none;stroke-opacity:1"
           d="m 24.862698,-11.904399 v 5.8360126"
           id="path3"
           transform="translate(25.498736,25.652664)" /><path
           style="fill:none;stroke:#ffffff;stroke-width:2.11667;stroke-linecap:butt;stroke-linejoin:miter;stroke-dasharray:none;stroke-opacity:1"
           d="m 34.682161,4.4412042 c 0,0 7.316893,3.6869536 8.04893,-4.12669983 L 35.283012,-1.393714 c 0,0 -2.099578,-0.023476 -2.837437,1.39568067 -0.643192,1.23708113 -0.726974,1.05987923 -2.564771,5.45277643 0,0 -0.853273,1.7038878 1.226343,3.5617175 l 5.481361,6.0734454 v 5.048979"
           id="path1"
           sodipodi:nodetypes="cccsc" /><path
           style="fill:none;stroke:#ffffff;stroke-width:2.11667;stroke-linecap:butt;stroke-linejoin:miter;stroke-dasharray:none;stroke-opacity:1"
           d="m 40.079211,5.1568336 c 0,0 1.204597,2.4430609 -0.61167,5.3209884"
           id="path2" /></g></g></g></svg>
